<svg xmlns="http://www.w3.org/2000/svg" viewBox="42.45 94.49 198.33 94.25"><path fill="currentColor" d="M 181.871094 96.460938 C 182.980469 96.402344 185.082031 96.226562 187.761719 96.226562 C 200.535156 96.226562 208.230469 103.457031 208.230469 115.472656 C 208.230469 125.96875 202.691406 135.125 189.335938 135.125 C 183.15625 135.125 181.871094 134.484375 181.871094 129.816406 Z M 188.40625 136.933594 C 204.675781 136.933594 212.429688 126.375 212.429688 115.585938 C 212.429688 104.625 203.917969 94.417969 189.046875 94.417969 C 183.679688 94.476562 177.207031 94.476562 172.425781 94.417969 L 172.425781 95.816406 C 177.207031 95.816406 178.082031 96.867188 178.082031 101.125 L 178.082031 129.757812 C 178.082031 134.425781 177.265625 135.355469 172.425781 135.355469 L 172.425781 136.933594 C 176.914062 136.816406 183.914062 136.816406 188.40625 136.933594 "/> <path fill="currentColor" d="M 230.109375 110.921875 C 234.136719 110.921875 236.292969 114.1875 236.292969 116.753906 C 236.292969 117.863281 235.769531 118.210938 234.367188 118.210938 L 222.355469 118.210938 C 223.171875 113.898438 225.792969 110.921875 230.109375 110.921875 M 230.109375 137.867188 C 234.601562 137.867188 238.390625 134.949219 240.492188 131.21875 L 239.675781 130.691406 C 237.867188 132.851562 235.125 134.597656 231.335938 134.597656 C 225.792969 134.597656 222.472656 130.109375 222.121094 124.394531 C 222.003906 122.292969 221.945312 121.128906 222.179688 120.078125 L 238.976562 120.078125 C 239.90625 119.902344 239.964844 119.554688 239.964844 118.621094 C 239.90625 112.03125 234.890625 109.113281 230.34375 109.113281 C 223.871094 109.113281 218.679688 114.714844 218.679688 124.394531 C 218.679688 132.035156 223.695312 137.867188 230.109375 137.867188 "/> <path fill="currentColor" d="M 133.472656 151.828125 C 133.746094 151.066406 133.761719 150.480469 133.457031 150.179688 C 133.453125 150.175781 133.453125 150.175781 133.449219 150.171875 C 133.449219 150.175781 133.445312 150.175781 133.445312 150.179688 C 133.148438 150.472656 133.15625 151.03125 133.40625 151.761719 Z M 133.472656 151.828125 "/> <path fill="currentColor" d="M 133.4375 151.808594 C 133.441406 151.820312 133.445312 151.835938 133.449219 151.847656 C 133.453125 151.84375 133.457031 151.835938 133.457031 151.828125 Z M 133.4375 151.808594 "/> <path fill="currentColor" d="M 133.445312 159.800781 C 133.449219 159.800781 133.449219 159.804688 133.449219 159.804688 C 133.453125 159.804688 133.453125 159.800781 133.457031 159.800781 C 133.761719 159.496094 133.746094 158.914062 133.472656 158.148438 L 133.40625 158.21875 C 133.15625 158.945312 133.148438 159.503906 133.445312 159.800781 "/> <path fill="currentColor" d="M 133.457031 158.148438 C 133.457031 158.140625 133.453125 158.136719 133.449219 158.128906 C 133.445312 158.144531 133.441406 158.15625 133.4375 158.171875 Z M 133.457031 158.148438 "/> <path fill="currentColor" d="M 130.253906 155.011719 L 130.226562 154.988281 L 130.253906 154.964844 C 129.605469 154.757812 129.105469 154.753906 128.808594 154.988281 C 129.105469 155.226562 129.605469 155.222656 130.253906 155.011719 "/> <path fill="currentColor" d="M 130.257812 154.996094 C 130.265625 154.996094 130.273438 154.992188 130.28125 154.988281 C 130.273438 154.988281 130.265625 154.984375 130.257812 154.980469 L 130.253906 154.988281 Z M 130.257812 154.996094 "/> <path fill="currentColor" d="M 199.425781 151.84375 C 199.425781 151.84375 199.421875 151.84375 199.421875 151.84375 C 199.035156 151.84375 198.675781 152.210938 198.367188 152.847656 L 198.367188 152.933594 C 199.039062 152.617188 199.425781 152.246094 199.425781 151.851562 C 199.425781 151.847656 199.425781 151.847656 199.425781 151.84375 "/> <path fill="currentColor" d="M 198.355469 152.898438 C 198.347656 152.910156 198.34375 152.921875 198.335938 152.933594 C 198.34375 152.933594 198.347656 152.929688 198.355469 152.925781 Z M 198.355469 152.898438 "/> <path fill="currentColor" d="M 193.160156 158.113281 C 193.164062 158.113281 193.164062 158.113281 193.167969 158.113281 C 193.5625 158.113281 193.933594 157.722656 194.25 157.050781 L 194.164062 157.050781 C 193.527344 157.359375 193.160156 157.722656 193.160156 158.105469 C 193.160156 158.109375 193.160156 158.109375 193.160156 158.113281 "/> <path fill="currentColor" d="M 194.242188 157.039062 C 194.246094 157.03125 194.246094 157.027344 194.25 157.023438 C 194.238281 157.027344 194.226562 157.03125 194.214844 157.039062 Z M 194.242188 157.039062 "/> <path fill="currentColor" d="M 194.195312 152.910156 L 194.195312 152.882812 L 194.226562 152.882812 C 193.941406 152.324219 193.617188 151.996094 193.273438 151.957031 C 193.3125 152.300781 193.640625 152.625 194.195312 152.910156 "/> <path fill="currentColor" d="M 194.210938 152.898438 L 194.210938 152.90625 C 194.21875 152.910156 194.222656 152.910156 194.230469 152.914062 C 194.226562 152.910156 194.226562 152.902344 194.222656 152.898438 Z M 194.210938 152.898438 "/> <path fill="currentColor" d="M 76.785156 174.925781 C 76.882812 175.652344 76.949219 176.375 76.949219 177.058594 C 76.949219 181.441406 75.019531 187 69.457031 187 C 63.664062 187 61.589844 180.453125 61.589844 176.257812 C 61.589844 175.820312 61.617188 175.375 61.65625 174.925781 L 58.304688 174.925781 C 58.214844 175.53125 58.152344 176.144531 58.152344 176.777344 C 58.152344 183.84375 63.429688 188.273438 69.554688 188.273438 C 75.441406 188.273438 80.386719 182.996094 80.386719 176.542969 C 80.386719 175.984375 80.34375 175.449219 80.28125 174.925781 Z M 76.785156 174.925781 "/> <path fill="currentColor" d="M 90.285156 182.804688 L 90.285156 174.925781 L 87.457031 174.925781 L 87.457031 182.804688 C 87.457031 185.867188 86.894531 186.339844 83.738281 186.339844 L 83.738281 187.519531 C 86.613281 187.328125 92.6875 187.375 95.417969 187.519531 L 95.417969 186.339844 C 90.945312 186.339844 90.285156 185.726562 90.285156 182.804688 "/> <path fill="currentColor" d="M 122.511719 183.324219 L 122.511719 174.925781 L 119.683594 174.925781 L 119.683594 182.429688 C 119.683594 184.21875 115.539062 185.726562 113.84375 185.726562 C 110.078125 185.726562 107.46875 183.503906 106.410156 180.113281 C 106.0625 179.003906 105.882812 177.769531 105.882812 176.445312 C 105.882812 175.914062 105.917969 175.414062 105.96875 174.925781 L 103.113281 174.925781 C 102.941406 175.757812 102.820312 176.605469 102.820312 177.484375 C 102.820312 182.996094 106.492188 188.222656 111.863281 188.222656 C 114.453125 188.222656 117.234375 187.046875 119.683594 184.644531 L 119.683594 188.082031 C 119.683594 188.460938 119.917969 188.601562 120.25 188.460938 C 122.085938 187.660156 124.628906 186.667969 125.761719 186.292969 L 125.761719 185.398438 C 123.546875 185.492188 122.511719 185.398438 122.511719 183.324219 "/> <path fill="currentColor" d="M 132.890625 157.195312 C 133.15625 157.542969 133.355469 157.871094 133.449219 158.128906 C 133.546875 157.871094 133.746094 157.542969 134.015625 157.191406 C 134.816406 156.976562 135.472656 156.332031 135.679688 155.535156 C 136.03125 155.273438 136.359375 155.078125 136.617188 154.992188 C 136.617188 154.992188 136.617188 154.992188 136.617188 154.988281 C 137.296875 155.21875 137.824219 155.234375 138.125 154.988281 C 137.824219 154.746094 137.296875 154.757812 136.617188 154.988281 C 136.355469 154.898438 136.019531 154.699219 135.660156 154.429688 C 135.4375 153.648438 134.796875 153.011719 134.015625 152.792969 C 133.75 152.441406 133.546875 152.109375 133.449219 151.847656 C 133.355469 152.109375 133.152344 152.4375 132.886719 152.789062 C 132.121094 153.003906 131.507812 153.628906 131.28125 154.394531 C 130.902344 154.683594 130.550781 154.898438 130.28125 154.988281 C 130.546875 155.078125 130.890625 155.289062 131.265625 155.570312 C 131.472656 156.355469 132.105469 156.984375 132.890625 157.195312 "/> <path fill="currentColor" d="M 134.953125 183.277344 L 134.953125 174.925781 L 132.125 174.925781 L 132.125 183.277344 C 132.125 185.867188 131.558594 186.339844 128.828125 186.339844 L 128.828125 187.519531 C 130.617188 187.46875 131.84375 187.421875 133.632812 187.421875 C 135.421875 187.421875 136.601562 187.519531 138.25 187.519531 L 138.25 186.339844 C 135.613281 186.339844 134.953125 185.867188 134.953125 183.277344 "/> <path fill="currentColor" d="M 147.390625 182.804688 L 147.390625 174.925781 L 144.5625 174.925781 L 144.5625 182.804688 C 144.5625 185.398438 144 186.339844 141.265625 186.339844 L 141.265625 187.519531 C 143.058594 187.46875 144.28125 187.421875 146.070312 187.421875 C 147.863281 187.421875 148.992188 187.519531 150.734375 187.519531 L 150.734375 186.339844 C 148.050781 186.339844 147.390625 185.398438 147.390625 182.804688 "/> <path fill="currentColor" d="M 171.84375 171.125 C 171.9375 168.957031 174.246094 167.261719 176.839844 167.261719 C 180.464844 167.261719 181.40625 169.191406 181.40625 171.925781 L 181.40625 172.410156 L 171.566406 172.414062 C 171.730469 172.078125 171.84375 171.667969 171.84375 171.125 M 232.105469 166.507812 C 235.355469 166.507812 237.097656 169.144531 237.097656 171.21875 C 237.097656 172.113281 236.675781 172.394531 235.546875 172.394531 L 225.839844 172.394531 C 226.5 168.910156 228.621094 166.507812 232.105469 166.507812 M 158.785156 171.761719 C 158.785156 171.804688 158.789062 171.835938 158.789062 171.878906 L 158.789062 173.878906 L 161.617188 173.882812 L 181.40625 173.886719 L 184.234375 173.886719 L 184.234375 173.902344 L 195.027344 173.902344 L 195.027344 173.894531 L 197.851562 173.894531 L 197.851562 173.902344 L 207.746094 173.902344 L 207.746094 173.894531 L 210.574219 173.898438 L 210.574219 173.902344 L 239.265625 173.902344 C 240.019531 173.761719 240.066406 173.480469 240.066406 172.726562 C 240.019531 167.402344 235.96875 165.046875 232.292969 165.046875 C 228.308594 165.046875 224.929688 167.683594 223.546875 172.394531 L 210.660156 172.402344 C 211.152344 170.25 213.878906 168.34375 214.90625 168.34375 C 216.699219 168.34375 216.746094 169.523438 218.160156 169.523438 C 219.007812 169.523438 220.089844 168.675781 220.089844 167.261719 C 220.089844 165.894531 218.820312 165.09375 217.359375 165.09375 C 215.332031 165.09375 212.503906 167.589844 210.574219 170.085938 C 210.574219 168.628906 210.574219 166.742188 210.761719 165.09375 L 209.914062 165.09375 C 208.550781 166.320312 206.945312 166.882812 204.96875 167.214844 L 204.96875 168.15625 C 207.558594 168.109375 207.746094 168.675781 207.746094 171.972656 L 207.746094 172.402344 L 197.851562 172.40625 L 197.851562 170.230469 C 197.851562 168.769531 197.851562 166.742188 198.042969 165.09375 L 197.191406 165.09375 C 195.828125 166.320312 194.226562 166.882812 192.246094 167.214844 L 192.246094 168.15625 C 194.839844 168.109375 195.027344 168.675781 195.027344 171.972656 L 195.027344 172.40625 L 184.234375 172.410156 L 184.234375 170.277344 C 184.234375 166.882812 181.691406 165.09375 178.769531 165.09375 C 177.261719 165.09375 176.226562 165.566406 174.152344 166.648438 C 170.714844 168.4375 169.207031 169.898438 169.207031 171.59375 C 169.207031 171.90625 169.269531 172.171875 169.355469 172.414062 L 161.617188 172.414062 L 161.617188 171.925781 C 161.617188 168.0625 160.15625 165.046875 156.484375 165.046875 C 153.5625 165.046875 150.21875 167.308594 147.390625 169.332031 C 147.390625 168.484375 147.390625 166.742188 147.578125 165.09375 L 146.730469 165.09375 C 145.363281 166.320312 143.765625 166.882812 141.785156 167.214844 L 141.785156 168.15625 C 144.375 168.109375 144.566406 168.675781 144.566406 171.972656 L 144.566406 172.421875 L 134.953125 172.425781 L 134.953125 170.230469 C 134.953125 168.769531 134.953125 166.742188 135.140625 165.09375 L 134.292969 165.09375 C 132.925781 166.320312 131.324219 166.882812 129.347656 167.214844 L 129.347656 168.15625 C 131.9375 168.109375 132.125 168.675781 132.125 171.972656 L 132.125 172.425781 L 122.511719 172.429688 L 122.511719 155.390625 C 122.511719 153.929688 122.558594 151.902344 122.746094 150.253906 L 121.898438 150.253906 C 120.53125 151.480469 118.554688 152.28125 116.574219 152.609375 L 116.574219 153.554688 C 119.257812 153.503906 119.683594 153.882812 119.683594 157.132812 L 119.683594 166.320312 C 117.421875 165.28125 115.960938 165.046875 114.453125 165.046875 C 109.824219 165.046875 105.734375 168.144531 103.878906 172.433594 L 90.359375 172.4375 C 90.828125 170.273438 93.585938 168.34375 94.617188 168.34375 C 96.410156 168.34375 96.457031 169.523438 97.871094 169.523438 C 98.71875 169.523438 99.800781 168.675781 99.800781 167.261719 C 99.800781 165.894531 98.53125 165.09375 97.070312 165.09375 C 95.042969 165.09375 92.214844 167.589844 90.285156 170.085938 C 90.285156 168.628906 90.285156 166.742188 90.472656 165.09375 L 89.625 165.09375 C 88.261719 166.320312 86.65625 166.882812 84.679688 167.214844 L 84.679688 168.15625 C 87.269531 168.109375 87.457031 168.675781 87.457031 171.972656 L 87.457031 172.4375 L 79.742188 172.441406 C 78.199219 167.808594 74.03125 165.046875 68.941406 165.046875 C 64.230469 165.046875 60.433594 168.125 58.894531 172.449219 L 42.4375 172.453125 L 45.964844 173.84375 L 58.492188 173.851562 L 61.78125 173.851562 C 61.855469 173.378906 61.953125 172.910156 62.074219 172.445312 C 62.945312 169.132812 65.078125 166.273438 69.082031 166.273438 C 72.816406 166.273438 74.988281 168.796875 76.070312 171.824219 C 76.089844 171.882812 76.109375 171.941406 76.128906 172 C 76.179688 172.148438 76.230469 172.292969 76.277344 172.441406 C 76.417969 172.90625 76.53125 173.378906 76.625 173.855469 L 80.121094 173.855469 L 87.457031 173.859375 L 90.285156 173.859375 L 103.347656 173.863281 L 106.121094 173.863281 C 106.214844 173.363281 106.335938 172.882812 106.484375 172.433594 C 106.550781 172.226562 106.625 172.023438 106.699219 171.824219 C 108.089844 168.296875 111.035156 166.507812 113.890625 166.507812 C 116.246094 166.507812 119.683594 167.496094 119.683594 171.125 L 119.683594 173.867188 L 122.511719 173.871094 L 132.125 173.871094 L 134.953125 173.875 L 134.953125 173.902344 L 144.566406 173.902344 L 144.566406 173.875 L 147.390625 173.878906 L 147.390625 170.699219 C 149.179688 169.238281 152.433594 167.589844 154.269531 167.542969 C 157.476562 167.542969 158.75 168.746094 158.785156 171.761719 "/> <path fill="currentColor" d="M 161.617188 182.804688 L 161.617188 174.925781 L 158.789062 174.925781 L 158.789062 182.804688 C 158.789062 185.398438 158.226562 186.339844 155.542969 186.339844 L 155.542969 187.519531 C 157.332031 187.46875 158.507812 187.421875 160.300781 187.421875 C 162.089844 187.421875 163.265625 187.519531 164.960938 187.519531 L 164.960938 186.339844 C 162.277344 186.339844 161.617188 185.398438 161.617188 182.804688 "/> <path fill="currentColor" d="M 181.40625 182.996094 C 179.902344 184.597656 177.734375 186.058594 175.425781 186.058594 C 172.882812 186.058594 171.328125 185.253906 171.328125 182.429688 C 171.328125 179.746094 174.71875 178.238281 181.40625 176.257812 Z M 184.234375 182.851562 L 184.234375 174.925781 L 181.40625 174.925781 C 174.105469 177.234375 168.640625 178.851562 168.5 183.511719 C 168.40625 186.246094 170.574219 188.269531 173.304688 188.269531 C 176.367188 188.269531 179.148438 186.667969 181.40625 184.316406 C 181.550781 186.859375 182.492188 188.269531 183.953125 188.269531 C 185.507812 188.269531 187.011719 187 188.378906 185.726562 L 188.238281 184.972656 C 185.929688 186.527344 184.234375 186.246094 184.234375 182.851562 "/> <path fill="currentColor" d="M 197.851562 183.277344 L 197.851562 174.925781 L 195.027344 174.925781 L 195.027344 183.277344 C 195.027344 185.867188 194.460938 186.339844 191.730469 186.339844 L 191.730469 187.519531 C 193.519531 187.46875 194.742188 187.421875 196.535156 187.421875 C 198.324219 187.421875 199.503906 187.519531 201.152344 187.519531 L 201.152344 186.339844 C 198.511719 186.339844 197.851562 185.867188 197.851562 183.277344 "/> <path fill="currentColor" d="M 196.347656 157.273438 C 196.832031 157.273438 197.289062 157.105469 197.671875 156.835938 C 197.945312 156.890625 198.183594 156.957031 198.351562 157.039062 C 198.351562 157.039062 198.355469 157.039062 198.355469 157.039062 C 198.644531 157.628906 198.980469 157.980469 199.335938 158.019531 C 199.296875 157.664062 198.945312 157.332031 198.355469 157.039062 C 198.355469 157.039062 198.355469 157.039062 198.355469 157.035156 C 198.273438 156.871094 198.210938 156.640625 198.15625 156.375 C 198.460938 155.992188 198.65625 155.519531 198.65625 155.011719 C 198.65625 154.5 198.453125 154.011719 198.140625 153.617188 C 198.195312 153.347656 198.257812 153.105469 198.335938 152.933594 C 198.164062 153.015625 197.917969 153.078125 197.640625 153.132812 C 197.265625 152.867188 196.816406 152.703125 196.347656 152.703125 C 195.867188 152.703125 195.417969 152.875 195.046875 153.152344 C 194.710938 153.09375 194.425781 153.011719 194.230469 152.914062 C 194.328125 153.117188 194.414062 153.40625 194.472656 153.753906 C 194.230469 154.121094 194.085938 154.558594 194.085938 155.011719 C 194.085938 155.464844 194.226562 155.886719 194.464844 156.246094 C 194.410156 156.558594 194.335938 156.828125 194.25 157.023438 C 194.4375 156.9375 194.703125 156.863281 195.007812 156.8125 C 195.386719 157.097656 195.847656 157.273438 196.347656 157.273438 "/> <path fill="currentColor" d="M 210.574219 182.804688 L 210.574219 174.925781 L 207.746094 174.925781 L 207.746094 182.804688 C 207.746094 185.867188 207.183594 186.339844 204.027344 186.339844 L 204.027344 187.519531 C 206.898438 187.328125 212.976562 187.375 215.707031 187.519531 L 215.707031 186.339844 C 211.234375 186.339844 210.574219 185.726562 210.574219 182.804688 "/> <path fill="currentColor" d="M 233.09375 185.632812 C 228.621094 185.632812 225.933594 182.007812 225.652344 177.390625 C 225.59375 176.316406 225.558594 175.5625 225.585938 174.925781 L 223.050781 174.925781 C 222.945312 175.710938 222.871094 176.519531 222.871094 177.390625 C 222.871094 183.558594 226.921875 188.269531 232.105469 188.269531 C 235.734375 188.269531 238.796875 185.914062 240.492188 182.902344 L 239.832031 182.476562 C 238.371094 184.21875 236.15625 185.632812 233.09375 185.632812 "/></svg>